<?xml version="1.0" encoding="utf-8"?>
<!-- Generator: Adobe Illustrator 23.0.6, SVG Export Plug-In . SVG Version: 6.00 Build 0)  -->
<svg version="1.1" id="Layer_1" xmlns="http://www.w3.org/2000/svg" xmlns:xlink="http://www.w3.org/1999/xlink" x="0px" y="0px"
	 viewBox="0 0 560 180" style="enable-background:new 0 0 560 180;" xml:space="preserve">
<style type="text/css">
	.st0{fill:#BE3C64;}
	.st1{fill:url(#SVGID_1_);}
	.st2{fill:url(#SVGID_2_);}
	.st3{fill:url(#SVGID_3_);}
	.st4{fill:url(#SVGID_4_);}
	.st5{fill:url(#SVGID_5_);}
	.st6{fill:url(#SVGID_6_);}
	.st7{fill:#666666;}
	.st8{font-family:'MyriadPro-Regular';}
	.st9{font-size:12px;}
</style>
<g>
	<g>
		<path class="st0" d="M89.7,2.4C41.2,2.4,1.9,41.7,1.9,90.2S41.2,178,89.7,178s87.8-39.3,87.8-87.8S138.1,2.4,89.7,2.4z M89,165.6
			c-43.4,0-78.6-35.2-78.6-78.6C10.4,43.6,45.6,8.4,89,8.4s78.6,35.2,78.6,78.6C167.6,130.4,132.4,165.6,89,165.6z"/>
		<g>
			<g>
				<path class="st0" d="M200.7,119.1V61.6c0-1.9,0.7-3.5,2-4.8c1.3-1.3,2.9-2,4.8-2h23.5c6.6,0,11.6,1.4,15.1,4.1
					c3.5,3,5.2,7,5.2,12.1c0,3.2-0.7,6-2.1,8.2c-1.4,2.1-3.3,3.8-5.8,5c3.2,1.4,5.7,3.3,7.5,5.8c1.6,2.4,2.4,5.5,2.4,9.3
					c0,6.2-2,11.1-6,14.5c-4.1,3.4-9.9,5-17.3,5H200.7z M213.4,79.7h15.1c3.2,0,5.6-0.6,7.1-1.7c1.5-1.1,2.2-2.9,2.2-5.2
					c0-2.4-0.7-4.1-2.2-5.2c-1.2-1-3.7-1.5-7.3-1.5h-14.9V79.7z M213.4,107.5h15.7c3.5,0,6.2-0.7,8-2.1c1.7-1.2,2.6-3.4,2.6-6.3
					c0-3-0.9-5.2-2.6-6.5c-1.6-1.2-4.4-1.9-8.2-1.9h-15.5V107.5z"/>
				<path class="st0" d="M258.7,69.5h6.7c1.7,0,3.2,0.6,4.5,1.9c1.2,1.2,1.9,2.7,1.9,4.5v43.3h-13.1V69.5z"/>
				<path class="st0" d="M287,114.6c-2.6-2.2-4.5-5.3-5.6-9c-1.1-3.8-1.7-7.7-1.7-11.8c0-3.4,0.5-6.7,1.4-10.1
					c0.9-3.4,2.4-6.2,4.4-8.4c3.2-3.7,7.4-5.9,12.5-6.6c5.1-0.7,9.7-0.3,13.8,1.2c4.7,1.9,8.2,5.1,10.4,9.7
					c2.1,4.1,3.2,8.9,3.2,14.4c0,4-0.4,7.4-1.3,10.3c-0.9,2.9-2,5.3-3.4,7.3c-3,4.1-6.8,6.7-11.4,7.6c-4.1,1.1-8.2,1.2-12.4,0.3
					C292.8,118.4,289.5,116.8,287,114.6z M295.9,81.8c-2.6,2.9-3.8,7.1-3.5,12.8c0.2,5.7,1.3,9.6,3.2,11.8c0.7,1,2.1,1.8,3.9,2.5
					c1.9,0.7,3.8,0.7,5.7,0.2c1.9-0.6,3.6-2,5.1-4.2c1.5-2.2,2.3-5.8,2.4-10.8c0-4.5-0.7-7.8-2.1-10.1c-1.4-2.2-3.1-3.7-4.9-4.3
					c-1.9-0.6-3.7-0.7-5.6-0.1C298.2,80.2,296.8,80.9,295.9,81.8z"/>
				<linearGradient id="SVGID_1_" gradientUnits="userSpaceOnUse" x1="332.5362" y1="86.8932" x2="397.0661" y2="86.8932">
					<stop  offset="0" style="stop-color:#00A79D"/>
					<stop  offset="1" style="stop-color:#2BB673"/>
				</linearGradient>
				<path class="st1" d="M332.5,119.1V61.6c0-1.9,0.7-3.5,2-4.8c1.3-1.3,2.9-2,4.8-2.1h12.9l12.7,49.1l12.7-49.1h19.6v64.3h-12.3
					V67.2l-13.1,51.8h-13.6l-13.2-51.8v51.8H332.5z"/>
				<linearGradient id="SVGID_2_" gradientUnits="userSpaceOnUse" x1="404.199" y1="94.1676" x2="446.1624" y2="94.1676">
					<stop  offset="0" style="stop-color:#00A79D"/>
					<stop  offset="1" style="stop-color:#2BB673"/>
				</linearGradient>
				<path class="st2" d="M437,117c-2.6,1.4-5.4,2.2-8.3,2.5c-2.9,0.3-5.5,0.5-7.7,0.5c-4.5,0-8.4-1.2-11.7-3.6c-3.4-2.4-5-6.4-5-12
					c0-5.2,1.5-9,4.6-11.2c3-2.2,6.9-3.7,11.7-4.5c0.6,0,1.4-0.1,2.2-0.3c0.9-0.2,1.9-0.3,3-0.5c5.5-0.7,8.2-2.4,8.2-4.8
					c0-1.9-1-3.1-2.9-3.6c-1.9-0.6-3.7-0.8-5.3-0.8c-1.7,0-3.3,0.3-4.7,0.7c-1.4,0.5-2.4,1.4-3,2.8h-12.5c0.5-3.9,2.2-7,5.2-9.5
					c3.4-2.9,8.1-4.3,14.4-4.3c7,0,12.2,1.2,15.7,3.5c3.6,2.5,5.4,6,5.4,10.4v17c0,5-0.9,8.9-2.7,11.7
					C441.7,113.7,439.5,115.8,437,117z M434,94.1c-1.7,0.9-4.2,1.7-7.3,2.4l-4.3,0.9c-2.2,0.6-3.9,1.4-4.8,2.4
					c-0.9,1.4-1.3,2.7-1.3,4.1c0,1.9,0.6,3.4,1.7,4.5c1.1,1,2.7,1.5,4.8,1.5c3.5,0,6.2-1,8.2-3c2-2,3-4.7,3-8.2V94.1z"/>
				<linearGradient id="SVGID_3_" gradientUnits="userSpaceOnUse" x1="453.1099" y1="94.2602" x2="481.0855" y2="94.2602">
					<stop  offset="0" style="stop-color:#00A79D"/>
					<stop  offset="1" style="stop-color:#2BB673"/>
				</linearGradient>
				<path class="st3" d="M453.1,119.1V95c0-4.8,0.7-8.9,2.1-12.2c1.4-3.3,3.4-5.9,5.9-7.9c2.4-1.9,5.1-3.2,8.3-4.1
					c3.2-0.9,6.4-1.3,9.8-1.3c0.2,0,0.6,0,0.9,0c0.4,0,0.7,0,0.9,0v13.2h-4.3c-3.6,0-6.3,0.9-8,2.6c-1.7,1.7-2.6,4.5-2.6,8.2v25.6
					H453.1z"/>
				<linearGradient id="SVGID_4_" gradientUnits="userSpaceOnUse" x1="487.4722" y1="86.9867" x2="532.2323" y2="86.9867">
					<stop  offset="0" style="stop-color:#00A79D"/>
					<stop  offset="1" style="stop-color:#2BB673"/>
				</linearGradient>
				<path class="st4" d="M500.5,69.5v18.3l15.9-18.3H532l-17.7,19l17.9,30.6h-15.7l-9.1-16.8c-1.9-3.4-3.5-4.8-4.8-4.3
					c-1.4,0.5-2.1,1.2-2.1,2.2v6.9v11.9h-13.1V54.9h6.7c1.7,0,3.2,0.6,4.5,1.9c1.2,1.2,1.9,2.7,1.9,4.3V69.5z"/>
			</g>
			<circle class="st0" cx="264.8" cy="58.5" r="7.3"/>
		</g>
	</g>
	<g>
		<linearGradient id="SVGID_5_" gradientUnits="userSpaceOnUse" x1="51.1335" y1="66.4009" x2="118.8536" y2="66.4009">
			<stop  offset="0" style="stop-color:#00A79D"/>
			<stop  offset="1" style="stop-color:#2BB673"/>
		</linearGradient>
		<path class="st5" d="M106.8,82.5c-14.3,19.3-35.6,27.8-47.7,18.9s-10.3-31.8,4-51.1s35.6-27.8,47.7-18.9S121.1,63.2,106.8,82.5z"
			/>
		
			<ellipse transform="matrix(0.7071 -0.7071 0.7071 0.7071 -54.8334 79.6032)" class="st0" cx="68.7" cy="106" rx="26.4" ry="46.3"/>
		<linearGradient id="SVGID_6_" gradientUnits="userSpaceOnUse" x1="112.6293" y1="101.4362" x2="145.4814" y2="101.4362">
			<stop  offset="0" style="stop-color:#FCB813"/>
			<stop  offset="1" style="stop-color:#FFDD00"/>
		</linearGradient>
		<circle class="st6" cx="129.1" cy="101.4" r="16.4"/>
	</g>
	<g>
		<path class="st7" d="M555.5,110.8c0,4.7-3.7,8.3-8.4,8.3c-4.7,0-8.5-3.7-8.5-8.3c0-4.6,3.8-8.2,8.5-8.2
			C551.9,102.6,555.5,106.2,555.5,110.8z M540.8,110.8c0,3.7,2.7,6.6,6.4,6.6c3.6,0,6.2-2.9,6.2-6.5c0-3.7-2.6-6.6-6.3-6.6
			C543.5,104.2,540.8,107.2,540.8,110.8z M545.8,115.1h-1.9v-8.2c0.8-0.2,1.8-0.2,3.2-0.2c1.6,0,2.2,0.2,2.9,0.6
			c0.5,0.4,0.8,1,0.8,1.8c0,0.9-0.7,1.6-1.7,1.9v0.1c0.8,0.3,1.2,0.9,1.5,2c0.2,1.2,0.4,1.8,0.6,2h-2.1c-0.2-0.3-0.4-1-0.6-2
			c-0.1-0.9-0.6-1.3-1.7-1.3h-0.9V115.1z M545.9,110.4h0.9c1.1,0,1.9-0.3,1.9-1.2c0-0.8-0.6-1.2-1.8-1.2c-0.5,0-0.9,0-1.1,0.1V110.4
			z"/>
	</g>
</g>
<text transform="matrix(1 0 0 1 549.2051 92.2384)" class="st8 st9"> </text>
</svg>
