<?xml version="1.0" encoding="utf-8"?>
<!-- Generator: Adobe Illustrator 23.0.6, SVG Export Plug-In . SVG Version: 6.00 Build 0)  -->
<svg version="1.1" id="Layer_1" xmlns="http://www.w3.org/2000/svg" xmlns:xlink="http://www.w3.org/1999/xlink" x="0px" y="0px"
	 viewBox="0 0 720 170" style="enable-background:new 0 0 720 170;" xml:space="preserve">
<style type="text/css">
	.st0{opacity:0.5;fill:#00A766;}
	.st1{opacity:0.5;fill:#4CD392;}
</style>
<path class="st0" d="M0,170L0.1,1c0,0,122.1-13.8,235.4,53.4c0,0,58.6,39.6,134.4,7.5c0,0,141.7-54.8,213.2,85c0,0,4.5,8.3,8.8,23.1
	"/>
<path class="st1" d="M104.3,175.9"/>
<path class="st1" d="M104.9,170.5c0,0,11.2-122.1,143.1-134.7c0,0,56.9-7.5,133.5,27.8s160.1-14.8,204.3-28.5
	c41.6-12.9,89.8-15.3,130.3,16.1c2.5,2,5.1,4.1,7.5,6.3C744.1,75.9,720,170,720,170"/>
</svg>
